# xmcd
#
# Track frame offsets: 
#        150
#        23435
#        36407
#        62015
#        79885
#        103685
#        115947
#        136285
#        164162
#        180150
#        194990
#        212445
#        235932
#
# Disc length: 3311 seconds
#
# Revision: 2
# Processed by: cddbd v1.5.2PL0 Copyright (c) Steve Scherf et al.
# Submitted via: ExactAudioCopy v0.90b4
#
DISCID=b30ced0d
DTITLE=American Music Club - The Golden Age
DYEAR=2008
DGENRE=Rock
TTITLE0=All My Love
TTITLE1=The John Berchman Victory Choir
TTITLE2=Decibels And Little Pills
TTITLE3=The Sleeping Beauty
TTITLE4=The Stars
TTITLE5=All The Lost Souls Welcome You To San Francisco
TTITLE6=Who You Are
TTITLE7=The Windows On The World
TTITLE8=One Step Ahead
TTITLE9=The Dance
TTITLE10=I Know That's Not Really You
TTITLE11=On My Way
TTITLE12=The Grand Duchess Of San Francisco
EXTD=
EXTT0=
EXTT1=
EXTT2=
EXTT3=
EXTT4=
EXTT5=
EXTT6=
EXTT7=
EXTT8=
EXTT9=
EXTT10=
EXTT11=
EXTT12=
PLAYORDER=
